<svg width="602" height="158" viewBox="0 0 602 158" fill="none" xmlns="http://www.w3.org/2000/svg">
<path fill-rule="evenodd" clip-rule="evenodd" d="M158 79C158 122.63 122.63 158 79 158C35.3695 158 0 122.63 0 79C0 35.3695 35.3695 0 79 0C122.63 0 158 35.3695 158 79ZM55 57H31V81C37.6274 81 43 86.3726 43 93V105H115V93C115 86.3726 120.373 81 127 81V57H103V69H91V57H67V69H55V57ZM491.634 129.847H510.698V1H491.634V129.847ZM465.516 129.847H446.453V65.4235H431.534V49.6903H446.453V19.2174H465.516V49.6903H482.921V65.4235H465.516V129.847ZM226.726 89.7686C226.726 103.68 237.17 113.948 251.26 113.948C259.051 113.948 265.681 111.133 270.323 106.33V126.535C264.355 130.013 257.227 132 249.602 132C225.4 132 207 113.286 207 89.7686C207 66.2516 225.4 47.5373 249.602 47.5373C257.227 47.5373 264.355 49.5247 270.323 53.0025V73.2073C265.681 68.4045 259.051 65.5891 251.26 65.5891C237.17 65.5891 226.726 75.8571 226.726 89.7686ZM341.77 56.8116V49.6903H359.672V129.847H341.77V122.726C335.305 128.522 327.016 132 317.733 132C294.526 132 276.789 113.286 276.789 89.7686C276.789 66.2516 294.526 47.5373 317.733 47.5373C327.016 47.5373 335.305 51.0152 341.77 56.8116ZM296.515 89.7686C296.515 103.68 306.296 113.948 319.391 113.948C332.487 113.948 342.267 103.68 342.267 89.7686C342.267 75.8571 332.487 65.5891 319.391 65.5891C306.296 65.5891 296.515 75.8571 296.515 89.7686ZM400.347 132C416.427 132 428.528 120.904 428.528 106.827C428.528 95.5651 421.897 87.1188 409.962 82.3161L397.861 77.5133C393.717 75.8571 392.391 74.0354 392.391 71.0544C392.391 67.0797 395.706 64.4298 399.85 64.4298C403.497 64.4298 406.647 66.7484 407.641 70.0607L425.378 63.4362C421.731 54.1618 411.785 47.5373 399.85 47.5373C384.6 47.5373 372.83 57.9709 372.83 71.3856C372.83 83.1441 380.29 90.5967 389.738 94.4058L402.502 99.5398C407.475 101.527 408.967 103.846 408.967 107.158C408.967 111.63 405.486 115.107 400.347 115.107C395.54 115.107 391.396 111.961 390.236 107.489L371.504 110.802C373.659 122.891 385.76 132 400.347 132ZM562.382 47.5373C585.258 47.5373 602 65.7547 602 89.7686C602 91.756 601.834 93.7434 601.668 95.5651H542.324C543.816 106.33 553.099 113.948 565.034 113.948C573.654 113.948 580.948 109.311 584.76 102.355L600.011 112.126C592.883 124.051 579.787 132 564.371 132C540.501 132 522.598 113.451 522.598 89.7686C522.598 65.7547 539.672 47.5373 562.382 47.5373ZM582.274 81.488C580.948 71.5512 573.157 64.2642 562.548 64.2642C551.938 64.2642 543.816 71.5512 542.324 81.488H582.274Z" fill="#fff"/>
</svg>
