<svg width="199" height="32" viewBox="0 0 199 32" fill="none" xmlns="http://www.w3.org/2000/svg">
<g clip-path="url(#clip0_1812_2815)">
<path d="M17.322 21.7L15.168 14.579L10.444 19.452L8.62102 13.306L21.024 0.5C6.57702 0.5 1.52202 7.214 2.90402 12.819L5.63702 23.35C7.07302 28.304 1.90702 30.876 0.499023 31.472C3.23402 31.553 5.36102 31.418 7.26702 30.822C10.913 29.82 13.316 27.357 17.321 21.698L17.322 21.7Z" fill="white"/>
<path opacity="0.85" d="M31.023 8.64999C29.587 3.69499 34.753 1.123 36.161 0.526995C33.427 0.445995 31.3 0.580995 29.394 1.177C25.72 2.179 23.317 4.642 19.31 10.3L21.465 17.42L26.188 12.547L28.011 18.693L15.61 31.473C30.057 31.473 35.112 24.759 33.73 19.154L31.023 8.64999Z" fill="white"/>
<path d="M48.591 9.97591V16.0679H57.541V18.2069H48.591V25.2729H46.05V7.80991H58.646V9.97591H48.59H48.591ZM61.077 9.05491C61.077 8.18891 61.7951 7.48491 62.7341 7.48491C63.6741 7.48491 64.391 8.16191 64.391 9.00091C64.391 9.89491 63.7011 10.5989 62.7341 10.5989C61.7941 10.5989 61.077 9.92191 61.077 9.05491ZM61.4911 12.0609H63.9491V25.2999H61.4911V12.0599V12.0609ZM75.7441 11.9249V14.2539C75.5511 14.2269 75.3581 14.2269 75.1921 14.2269C72.5681 14.2269 70.9381 15.7969 70.9381 18.6939V25.2999H68.479V12.0599H70.8271V14.2799C71.7111 12.7099 73.3691 11.9249 75.7441 11.9249V11.9249ZM90.3291 19.4799H79.363C79.667 21.8069 81.573 23.3499 84.252 23.3499C85.826 23.3499 87.1521 22.8359 88.1471 21.7529L89.5 23.2969C88.285 24.7039 86.406 25.4349 84.17 25.4349C79.805 25.4349 76.904 22.6199 76.904 18.6669C76.904 14.7409 79.777 11.9249 83.672 11.9249C87.567 11.9249 90.3571 14.6869 90.3571 18.7479C90.3841 18.9379 90.3571 19.2349 90.3291 19.4789V19.4799ZM79.363 17.7459H88.0361C87.7881 15.5259 86.075 13.9559 83.699 13.9559C81.352 13.9559 79.639 15.4989 79.363 17.7459ZM109.803 7.80991V25.2999H105.688V18.1249H97.5941V25.2999H93.451V7.80991H97.5941V14.7139H105.688V7.80991H109.803ZM127.261 11.8439L121.074 26.1119C119.748 29.3619 117.869 30.3359 115.383 30.3359C113.974 30.3359 112.455 29.8759 111.571 29.1169L113.035 26.3559C113.643 26.8699 114.499 27.1959 115.273 27.1959C116.378 27.1959 116.985 26.7079 117.51 25.5159L117.565 25.3809L111.627 11.8439H115.742L119.554 20.9679L123.421 11.8439H127.261ZM142.343 6.75391V25.2999H138.531V23.7569C137.536 24.9209 136.072 25.5169 134.249 25.5169C130.382 25.5169 127.399 22.8089 127.399 18.5859C127.399 14.3619 130.382 11.6549 134.249 11.6549C135.934 11.6549 137.371 12.1689 138.365 13.2789V6.75391H142.343V6.75391ZM138.448 18.5589C138.448 16.2299 136.929 14.8219 134.968 14.8219C132.979 14.8219 131.459 16.2299 131.459 18.5579C131.459 20.8869 132.979 22.2949 134.968 22.2949C136.901 22.2949 138.448 20.8869 138.448 18.5579V18.5589ZM154.414 11.6549V15.2549C154.083 15.2279 153.834 15.2009 153.53 15.2009C151.348 15.2009 149.884 16.3659 149.884 18.9379V25.2729H145.906V11.8439H149.718V13.6309C150.657 12.3309 152.287 11.6549 154.414 11.6549V11.6549ZM168.695 17.6099V25.2729H164.966V23.5939C164.22 24.8129 162.811 25.4619 160.795 25.4619C157.591 25.4619 155.685 23.7019 155.685 21.4019C155.685 19.0189 157.397 17.3669 161.568 17.3669H164.717C164.717 15.6889 163.695 14.7139 161.568 14.7139C160.104 14.7139 158.613 15.2009 157.618 15.9589L156.182 13.2249C157.673 12.1689 159.911 11.5999 162.093 11.5999C166.292 11.6549 168.695 13.5499 168.695 17.6099ZM164.717 21.0499V19.6689H161.983C160.132 19.6689 159.524 20.3449 159.524 21.2389C159.524 22.2129 160.353 22.8629 161.762 22.8629C163.115 22.8629 164.275 22.2679 164.717 21.0489V21.0499ZM186.208 17.5839V25.2729H182.23V18.2059C182.23 16.0409 181.208 15.0389 179.44 15.0389C177.534 15.0389 176.153 16.1759 176.153 18.6669V25.2999H172.175V11.8439H175.987V13.4139C177.065 12.2769 178.667 11.6269 180.517 11.6269C183.749 11.6549 186.208 13.4959 186.208 17.5839ZM198.5 24.6499C197.671 25.2189 196.484 25.4899 195.268 25.4899C192.036 25.4899 190.13 23.8649 190.13 20.6699V15.1469H188.003V12.1419H190.13V8.86591H194.136V12.1419H197.561V15.1469H194.136V20.6169C194.136 21.7529 194.771 22.4029 195.848 22.4029C196.428 22.4029 197.008 22.2409 197.45 21.9159L198.5 24.6499Z" fill="white"/>
</g>
<defs>
<clipPath id="clip0_1812_2815">
<rect width="199" height="32" fill="white"/>
</clipPath>
</defs>
</svg>
