<svg width="332" height="63" viewBox="0 0 332 63" fill="none" xmlns="http://www.w3.org/2000/svg">
<path fill-rule="evenodd" clip-rule="evenodd" d="M6.14999 6.15015C14.35 -2.05005 27.65 -2.05005 35.85 6.15015C44.05 14.3494 44.05 27.6501 35.85 35.8494L21 50.7L6.14999 35.8494C-2.05 27.6501 -2.05 14.3494 6.14999 6.15015ZM30.24 25.0798L35.72 22.8894C37.43 22.2097 37.43 19.7898 35.72 19.1101L30.24 16.9197C27.89 15.9802 26.02 14.1101 25.08 11.7595L22.89 6.28003C22.21 4.57007 19.79 4.57007 19.11 6.28003L16.92 11.7595C15.98 14.1101 14.11 15.9802 11.76 16.9197L6.27999 19.1101C4.57 19.7898 4.57 22.2097 6.27999 22.8894L11.76 25.0798C14.11 26.0193 15.98 27.8894 16.92 30.24L19.11 35.7195C19.79 37.4294 22.21 37.4294 22.89 35.7195L25.08 30.24C26.02 27.8894 27.89 26.0193 30.24 25.0798ZM95.5 42.99C95.58 43.9802 95.97 44.9099 96.68 45.78C97.38 46.6501 97.73 47.3093 97.73 47.7595V48.0095C97.73 48.7097 97.27 49.0593 96.37 49.0593H85.58C84.67 49.0593 84.22 48.7097 84.22 48.0095V47.7595C84.22 47.3494 84.6 46.7097 85.37 45.8396C86.13 44.9695 86.5 44.0398 86.46 43.0496L85.84 31.1501C85.55 25.2 83.75 22.2195 80.45 22.2195C78.8 22.2195 77.5 22.8396 76.57 24.0798C75.64 25.3201 75.17 26.9695 75.17 29.0398V43.1101C75.17 44.0593 75.61 44.9695 76.5 45.8396C77.39 46.7097 77.83 47.3494 77.83 47.7595V48.0095C77.83 48.7097 77.33 49.0593 76.34 49.0593H64.87C63.92 49.0593 63.44 48.7097 63.44 48.0095V47.7595C63.44 47.3494 63.87 46.7097 64.74 45.8396C65.61 44.9695 66.04 44.0593 66.04 43.1101V12.24C66.04 11.2498 65.58 10.3601 64.64 9.57007C63.71 8.78979 63.24 8.19019 63.24 7.76929V7.57983C63.24 6.95972 63.65 6.44019 64.48 6.03003L72.66 2.42944C73.36 2.1394 73.91 2.09937 74.3 2.30933C74.69 2.51929 74.89 2.92944 74.89 3.54956L74.83 22.1501C76.77 19.8396 79.48 18.6794 82.95 18.6794C86.09 18.6794 88.76 19.7 90.95 21.7498C93.14 23.7996 94.38 27.0095 94.67 31.3894L95.48 42.9802L95.5 42.99ZM115.77 49.6902C110.86 49.6902 106.8 48.1697 103.6 45.1296C100.4 42.0896 98.79 38.3796 98.79 33.9998C98.79 29.6199 100.36 25.9197 103.5 23.03C106.64 20.1394 110.42 18.6902 114.85 18.6902C119.6 18.6902 123.57 20.1902 126.75 23.1902C129.93 26.1902 131.52 29.9001 131.52 34.3201C131.52 38.74 130.02 42.4099 127.02 45.3201C124.02 48.2302 120.27 49.6902 115.77 49.6902ZM116.9 46.9597C118.59 46.9597 119.91 46.1794 120.84 44.5994C121.77 43.03 122.24 40.8201 122.24 37.9695C122.24 35.6101 121.9 33.1902 121.22 30.6902C120.54 28.1902 119.51 26.0193 118.15 24.1794C116.79 22.3396 115.28 21.4197 113.62 21.4197C109.82 21.4197 107.92 24.4402 107.92 30.4695C107.92 32.7 108.26 35.0593 108.94 37.5398C109.62 40.0193 110.68 42.2097 112.1 44.1101C113.53 46.0095 115.13 46.9597 116.9 46.9597ZM162.03 22.7195C159.13 20.03 155.74 18.6902 151.86 18.6902H151.85C147.84 18.6902 144.97 20.0496 143.23 22.78L143.29 20.1794C143.29 18.6501 142.5 18.28 140.93 19.0593L133.99 22.4695C133.16 22.8894 132.75 23.3796 132.75 23.9597V24.2693C132.75 24.7302 133.23 25.3396 134.18 26.0994C135.13 26.8601 135.61 27.7 135.61 28.6101V56.5095C135.61 57.4998 135.21 58.4294 134.4 59.2996C133.59 60.1697 133.19 60.8093 133.19 61.2195V61.4695C133.19 62.1697 133.67 62.5193 134.62 62.5193H145.84C146.79 62.5193 147.27 62.1697 147.27 61.4695V61.2195C147.27 60.8093 146.84 60.1697 145.97 59.2996C145.1 58.4294 144.67 57.4998 144.67 56.5095V47.2693C146.61 48.8796 149.03 49.6902 151.92 49.6902C155.89 49.6902 159.29 48.1902 162.12 45.1902C164.95 42.1902 166.37 38.3093 166.37 33.6902C166.37 29.0701 164.92 25.4099 162.03 22.7195ZM155.61 44.5398C154.51 46.1902 152.97 47.0193 150.99 47.0193H150.98C149.33 47.0193 147.86 46.1599 146.58 44.4197C145.3 42.6794 144.66 40.6199 144.66 38.2195V26.3796C144.82 24.8894 145.38 23.6794 146.33 22.7498C147.28 21.8093 148.4 21.3494 149.68 21.3494C152 21.3494 153.84 22.9802 155.2 26.2195C156.57 29.4597 157.25 33.1902 157.25 37.4099C157.25 40.5095 156.7 42.8894 155.61 44.5398ZM219.94 43.0496C220.02 44.0398 220.41 44.9695 221.12 45.8396C221.82 46.7097 222.17 47.3699 222.17 47.8201V48.0701C222.17 48.7693 221.71 49.1199 220.81 49.1199H210.08C209.13 49.1199 208.65 48.7693 208.65 48.0701V47.8201C208.65 47.4099 209.03 46.7693 209.8 45.9001C210.56 45.03 210.91 44.0994 210.82 43.1101L210.2 31.7595C210.03 28.3298 209.52 25.8796 208.65 24.4099C207.78 22.9402 206.5 22.2097 204.81 22.2097C203.36 22.2097 202.19 22.8093 201.28 24.0095C200.37 25.2097 199.87 26.7595 199.79 28.6599C199.95 29.49 200.04 30.4802 200.04 31.6394V43.1101C200.04 44.0994 200.4 45.03 201.12 45.9001C201.84 46.7693 202.2 47.4099 202.2 47.8201V48.0701C202.2 48.7693 201.74 49.1199 200.84 49.1199H190.11C189.16 49.1199 188.68 48.7693 188.68 48.0701V47.8201C188.68 47.4099 189.05 46.7693 189.8 45.9001C190.54 45.03 190.92 44.0994 190.92 43.1101V31.0193C190.92 28.2097 190.42 26.0398 189.43 24.5095C188.44 22.9802 187.14 22.2195 185.52 22.2195C183.9 22.2195 182.56 22.8601 181.61 24.1394C180.66 25.4197 180.18 27.0798 180.18 29.0994V43.1101C180.18 44.0994 180.62 45.03 181.51 45.9001C182.4 46.7693 182.84 47.4099 182.84 47.8201V48.0701C182.84 48.7693 182.36 49.1199 181.41 49.1199H169.88C168.93 49.1199 168.45 48.7693 168.45 48.0701V47.8201C168.45 47.4099 168.89 46.7693 169.78 45.9001C170.67 45.03 171.11 44.0994 171.11 43.1101V28.6599C171.11 27.8796 170.86 27.2097 170.37 26.6794C169.87 26.1394 169.37 25.6794 168.85 25.28C168.33 24.8894 168.07 24.4802 168.07 24.0701V23.8201C168.07 23.3699 168.5 22.9294 169.37 22.5193L177.18 18.9197C177.88 18.5896 178.42 18.5593 178.79 18.8298C179.16 19.0994 179.35 19.5593 179.35 20.2302V23.1394C181.29 20.1599 184.14 18.6794 187.91 18.6794C192.62 18.6794 196.05 20.5398 198.2 24.2595C199.03 22.5193 200.28 21.1599 201.95 20.1697C203.62 19.1794 205.51 18.6794 207.62 18.6794C210.76 18.6794 213.39 19.7195 215.49 21.8093C217.6 23.9001 218.82 27.2996 219.15 32.0095L219.89 43.0496H219.94ZM250.06 39.1394C249.53 38.9802 249.07 39.1394 248.7 39.6394H248.68C248.06 40.6697 247.12 41.53 245.86 42.2097C244.6 42.8894 243.18 43.2302 241.61 43.2302C237.85 43.2302 235.12 41.4402 233.43 37.8396L247.19 31.5798C249.01 30.7595 249.92 29.3894 249.92 27.49C249.92 25.1697 248.9 23.1296 246.88 21.3494C244.85 19.5701 241.96 18.6794 238.2 18.6794C234.07 18.6794 230.53 20.1199 227.6 22.99C224.67 25.8601 223.2 29.5095 223.2 33.9294C223.2 38.6394 224.61 42.45 227.42 45.3396C230.23 48.2302 233.83 49.6794 238.21 49.6794C241.85 49.6794 244.81 48.6599 247.08 46.6101C249.35 44.5701 250.59 42.4695 250.8 40.3201C250.84 39.7 250.6 39.3093 250.06 39.1394ZM233.27 23.7302C234.22 22.1794 235.5 21.4099 237.11 21.4099C238.6 21.4099 239.8 22.1599 240.71 23.6697C241.61 25.1794 242.07 26.6394 242.07 28.0398C242.07 29.4402 241.53 30.4099 240.46 30.95L232.46 34.9802C232.05 33.45 231.84 31.6794 231.84 29.6501C231.84 27.2498 232.32 25.28 233.27 23.7302ZM282.74 43.1101C282.74 44.0593 283.15 44.9802 283.98 45.8699C284.81 46.7595 285.22 47.4099 285.22 47.8201V48.0095C285.22 48.7097 284.81 49.0593 283.98 49.0593H276.29C275.34 49.0593 274.86 48.6101 274.86 47.7L274.74 46.3396C272.84 48.5701 270.15 49.6902 266.68 49.6902C262.67 49.6902 259.24 48.2898 256.39 45.4998C253.54 42.7097 252.11 38.9197 252.11 34.1199C252.11 29.6199 253.54 25.9197 256.39 23.0193C259.24 20.1296 262.69 18.6794 266.74 18.6794C269.63 18.6794 272.05 19.49 273.99 21.0994V11.1794C273.99 10.3494 273.73 9.66968 273.21 9.12964C272.69 8.5896 272.18 8.1394 271.66 7.76929C271.14 7.40015 270.88 7.00952 270.88 6.5896V6.40015C270.88 5.69995 271.31 5.21948 272.18 4.96948L280.3 2.48999C281.91 1.94995 282.72 2.36987 282.72 3.73022V43.1101H282.74ZM268.73 47.0193C270.13 47.0193 271.36 46.4294 272.42 45.2498C273.47 44.0701 274 42.45 274 40.3796V29.4695C274 27.45 273.32 25.5896 271.96 23.8894C270.59 22.2 269.02 21.3494 267.25 21.3494C265.35 21.3494 263.84 22.1501 262.72 23.74C261.6 25.3298 261.02 27.5701 260.98 30.4695C260.9 32.8298 261.13 35.24 261.69 37.7195C262.25 40.2 263.16 42.3601 264.42 44.2C265.68 46.0398 267.12 46.9802 268.73 47.0193ZM287.15 48.0193C287.15 48.7195 287.6 49.0701 288.51 49.0701L288.5 49.0798H299.91C300.86 49.0798 301.34 48.7302 301.34 48.03V47.78C301.34 47.3699 300.91 46.7302 300.04 45.8601C299.17 44.99 298.74 44.0593 298.74 43.0701V20.1902C298.74 19.5701 298.51 19.1296 298.06 18.8601C297.61 18.5896 296.99 18.6199 296.2 18.95L288.45 22.7898C287.58 23.24 287.15 23.6794 287.15 24.0896V24.28C287.15 24.6101 287.54 25.2302 288.33 26.1394C289.12 27.0496 289.51 28.0193 289.51 29.0496V43.0593C289.51 44.0496 289.12 44.9802 288.33 45.8494C287.54 46.7195 287.15 47.3601 287.15 47.7693V48.0193ZM294.15 14.9099C295.97 14.9099 297.42 14.4001 298.52 13.3894C299.61 12.3699 300.16 11.03 300.16 9.44995C300.16 7.86987 299.61 6.57983 298.52 5.57007C297.43 4.55933 295.97 4.04956 294.15 4.04956C292.33 4.04956 290.86 4.55933 289.72 5.57007C288.58 6.5896 288.01 7.82983 288.01 9.44995C288.01 11.0701 288.58 12.3796 289.72 13.3894C290.85 14.4001 292.33 14.9099 294.15 14.9099ZM318.7 49.6902C314.11 49.6902 310.3 48.1599 307.26 45.0994C304.22 42.0398 302.7 38.3796 302.7 34.1296C302.7 29.4998 304.22 25.78 307.26 22.9695C310.3 20.1599 313.99 18.7302 318.33 18.6902C321.88 18.6501 324.91 19.4802 327.41 21.1697C329.91 22.8699 331.16 24.9294 331.16 27.3699C331.16 28.28 330.85 29.03 330.23 29.6296C329.61 30.2302 328.64 30.5095 327.32 30.4695C326.33 30.4294 325.46 30.0798 324.72 29.4197C323.98 28.7595 323.37 27.99 322.89 27.1296C322.41 26.2595 321.93 25.3894 321.43 24.53C320.93 23.6599 320.31 22.9294 319.57 22.3298C318.83 21.7302 317.96 21.4294 316.97 21.4294C315.23 21.4294 313.84 22.2195 312.79 23.7898C311.74 25.3601 311.21 27.3201 311.21 29.6794C311.21 33.8093 312.17 37.1199 314.09 39.5994C316.01 42.0798 318.56 43.3201 321.75 43.3201C324.94 43.3201 327.5 41.8699 329.19 38.9802C329.44 38.6501 329.74 38.45 330.09 38.3894C330.44 38.3298 330.75 38.4099 331.02 38.6394C331.29 38.8699 331.4 39.1902 331.36 39.5994C331.15 42.3699 329.94 44.7498 327.73 46.7302C325.52 48.7097 322.51 49.7097 318.71 49.7097L318.7 49.6902Z" fill="#FFBAD2"/>
</svg>
