<svg width="118" height="16" viewBox="0 0 118 16" fill="none" xmlns="http://www.w3.org/2000/svg">
<path d="M0 0H7V9H16V16H0V0Z" fill="white"/>
<path d="M12 8C14.2091 8 16 6.20914 16 4C16 1.79086 14.2091 0 12 0C9.79086 0 8 1.79086 8 4C8 6.20914 9.79086 8 12 8Z" fill="white"/>
<path d="M27.8965 12.9999V1.33594H31.1285V10.3599H36.6805V12.9999H27.8965Z" fill="white"/>
<path d="M41.1486 13.1599C40.4019 13.1599 39.7459 13.0319 39.1806 12.7759C38.6153 12.5199 38.1779 12.0986 37.8686 11.5119C37.5593 10.9146 37.4046 10.1199 37.4046 9.12794V4.35994H40.5246V8.56794C40.5246 9.01594 40.5726 9.4106 40.6686 9.75194C40.7753 10.0933 40.9566 10.3546 41.2126 10.5359C41.4686 10.7173 41.8099 10.8079 42.2366 10.8079C42.6739 10.8079 43.0473 10.7173 43.3566 10.5359C43.6659 10.3546 43.9059 10.1039 44.0766 9.78394C44.2473 9.45327 44.3326 9.07994 44.3326 8.66394V4.35994H47.4526V12.9999H44.4606L44.3326 11.6239H44.2046C43.9486 12.0826 43.5379 12.4559 42.9726 12.7439C42.4179 13.0213 41.8099 13.1599 41.1486 13.1599Z" fill="white"/>
<path d="M48.8421 4.35994V12.9999H51.9621V8.53594C51.9621 8.15194 52.0368 7.8106 52.1861 7.51194C52.3354 7.21327 52.5488 6.9786 52.8261 6.80794C53.1034 6.6266 53.4394 6.53594 53.8341 6.53594C54.2501 6.53594 54.5754 6.6266 54.8101 6.80794C55.0448 6.98927 55.2048 7.23994 55.2901 7.55994C55.3861 7.86927 55.4341 8.23194 55.4341 8.64794V12.9999H58.5381V8.53594C58.5381 8.14127 58.6128 7.7946 58.7621 7.49594C58.9114 7.19727 59.1248 6.9626 59.4021 6.79194C59.6901 6.62127 60.0314 6.53594 60.4261 6.53594C60.8528 6.53594 61.1781 6.6266 61.4021 6.80794C61.6261 6.98927 61.7808 7.23994 61.8661 7.55994C61.9621 7.86927 62.0101 8.23194 62.0101 8.64794V12.9999H65.1301V8.24794C65.1301 7.31994 64.9861 6.55727 64.6981 5.95994C64.4208 5.3626 64.0154 4.91994 63.4821 4.63194C62.9488 4.34394 62.3088 4.19994 61.5621 4.19994C60.8368 4.19994 60.1914 4.34394 59.6261 4.63194C59.0608 4.90927 58.6074 5.37327 58.2661 6.02394H58.1061C57.8608 5.40527 57.4714 4.9466 56.9381 4.64794C56.4154 4.34927 55.7914 4.19994 55.0661 4.19994C54.3941 4.19994 53.8021 4.33327 53.2901 4.59994C52.7781 4.85594 52.3834 5.22927 52.1061 5.71994H51.9621L51.8341 4.35994H48.8421Z" fill="white"/>
<path fill-rule="evenodd" clip-rule="evenodd" d="M71.3307 13.1599C70.2534 13.1599 69.3201 12.9839 68.5307 12.6319C67.7521 12.2799 67.1441 11.7733 66.7067 11.1119C66.2801 10.4506 66.0667 9.65594 66.0667 8.72794C66.0667 7.76794 66.2854 6.95194 66.7227 6.27994C67.1601 5.60794 67.7734 5.09594 68.5627 4.74394C69.3521 4.38127 70.2641 4.19994 71.2987 4.19994C72.4294 4.19994 73.3841 4.4026 74.1627 4.80794C74.9521 5.21327 75.5387 5.79994 75.9227 6.56794C76.3067 7.33594 76.4561 8.26394 76.3707 9.35194H69.1707C69.1921 9.7146 69.2881 10.0293 69.4587 10.2959C69.6401 10.5519 69.8961 10.7493 70.2267 10.8879C70.5574 11.0159 70.9521 11.0799 71.4107 11.0799C71.9227 11.0799 72.3654 10.9999 72.7387 10.8399C73.1121 10.6693 73.3521 10.4559 73.4587 10.1999H76.3867C76.3227 10.7866 76.0614 11.3039 75.6027 11.7519C75.1441 12.1999 74.5467 12.5466 73.8107 12.7919C73.0854 13.0373 72.2587 13.1599 71.3307 13.1599ZM73.3 7.70394H69.1337C69.1952 7.42485 69.3035 7.18484 69.4587 6.98394C69.6507 6.74927 69.8961 6.57327 70.1947 6.45594C70.5041 6.3386 70.8667 6.27994 71.2827 6.27994C71.7201 6.27994 72.0827 6.34394 72.3707 6.47194C72.6694 6.59994 72.8934 6.78127 73.0427 7.01594C73.1782 7.21467 73.264 7.444 73.3 7.70394Z" fill="white"/>
<path fill-rule="evenodd" clip-rule="evenodd" d="M82.3277 12.9519C82.7331 13.0693 83.1917 13.1279 83.7037 13.1279C84.5571 13.1279 85.2984 12.9466 85.9277 12.5839C86.5571 12.2213 87.0477 11.7093 87.3997 11.0479C87.7517 10.3759 87.9277 9.58127 87.9277 8.66394C87.9277 7.9706 87.8264 7.35194 87.6237 6.80794C87.4211 6.26394 87.1331 5.79994 86.7597 5.41594C86.3971 5.02127 85.9544 4.7226 85.4317 4.51994C84.9197 4.3066 84.3437 4.19994 83.7037 4.19994C83.0531 4.19994 82.4504 4.3226 81.8957 4.56794C81.3517 4.81327 80.9464 5.15994 80.6797 5.60794H80.5677V1.33594H77.4477V12.9999H80.3917L80.5037 11.7519H80.5997C80.7704 12.0186 80.9997 12.2586 81.2877 12.4719C81.5757 12.6746 81.9224 12.8346 82.3277 12.9519ZM83.8317 10.5519C83.5224 10.7119 83.1597 10.7919 82.7437 10.7919C82.2851 10.7919 81.8904 10.7066 81.5597 10.5359C81.2397 10.3653 80.9944 10.1306 80.8237 9.83194C80.6531 9.5226 80.5677 9.18127 80.5677 8.80794V8.51994C80.5677 8.1466 80.6531 7.8106 80.8237 7.51194C80.9944 7.21327 81.2397 6.9786 81.5597 6.80794C81.8904 6.6266 82.2851 6.53594 82.7437 6.53594C83.0531 6.53594 83.3304 6.58394 83.5757 6.67994C83.8317 6.77594 84.0504 6.9146 84.2317 7.09594C84.4237 7.27727 84.5677 7.50127 84.6637 7.76794C84.7597 8.02394 84.8077 8.3226 84.8077 8.66394C84.8077 9.11194 84.7224 9.49594 84.5517 9.81594C84.3811 10.1359 84.1411 10.3813 83.8317 10.5519Z" fill="white"/>
<path d="M88.9771 12.9999V4.35994H91.8091L91.9211 5.67194H92.0331C92.2144 5.2346 92.4971 4.88794 92.8811 4.63194C93.2758 4.36527 93.7504 4.23194 94.3051 4.23194C94.4438 4.23194 94.5664 4.23727 94.6731 4.24794C94.7904 4.24794 94.9024 4.25327 95.0091 4.26394V7.06394C94.8704 7.03194 94.7371 7.0106 94.6091 6.99994C94.4811 6.98927 94.3531 6.98394 94.2251 6.98394C93.7771 6.98394 93.3931 7.0586 93.0731 7.20794C92.7638 7.35727 92.5238 7.59194 92.3531 7.91194C92.1931 8.23194 92.1078 8.6586 92.0971 9.19194V12.9999H88.9771Z" fill="white"/>
<path d="M95.9752 4.35994V12.9999H99.0952V4.35994H95.9752Z" fill="white"/>
<path d="M95.9752 1.33594V3.36794H99.0952V1.33594H95.9752Z" fill="white"/>
<path d="M104.105 12.9999C103.603 12.9999 103.166 12.9199 102.793 12.7599C102.419 12.5893 102.131 12.3386 101.929 12.0079C101.726 11.6773 101.625 11.2559 101.625 10.7439V6.69594H100.073V4.35994H101.625V2.26394L104.681 1.68794V4.35994H106.777V6.69594H104.681V9.71994C104.681 9.96527 104.734 10.1359 104.841 10.2319C104.958 10.3173 105.145 10.3599 105.401 10.3599H106.777V12.9999H104.105Z" fill="white"/>
<path fill-rule="evenodd" clip-rule="evenodd" d="M109.818 12.6319C110.608 12.9839 111.541 13.1599 112.618 13.1599C113.546 13.1599 114.373 13.0373 115.098 12.7919C115.834 12.5466 116.432 12.1999 116.89 11.7519C117.349 11.3039 117.61 10.7866 117.674 10.1999H114.746C114.64 10.4559 114.4 10.6693 114.026 10.8399C113.653 10.9999 113.21 11.0799 112.698 11.0799C112.24 11.0799 111.845 11.0159 111.514 10.8879C111.184 10.7493 110.928 10.5519 110.746 10.2959C110.576 10.0293 110.48 9.7146 110.458 9.35194H117.658C117.744 8.26394 117.594 7.33594 117.21 6.56794C116.826 5.79994 116.24 5.21327 115.45 4.80794C114.672 4.4026 113.717 4.19994 112.586 4.19994C111.552 4.19994 110.64 4.38127 109.85 4.74394C109.061 5.09594 108.448 5.60794 108.01 6.27994C107.573 6.95194 107.354 7.76794 107.354 8.72794C107.354 9.65594 107.568 10.4506 107.994 11.1119C108.432 11.7733 109.04 12.2799 109.818 12.6319ZM110.421 7.70394H114.588C114.552 7.444 114.466 7.21467 114.33 7.01594C114.181 6.78127 113.957 6.59994 113.658 6.47194C113.37 6.34394 113.008 6.27994 112.57 6.27994C112.154 6.27994 111.792 6.3386 111.482 6.45594C111.184 6.57327 110.938 6.74927 110.746 6.98394C110.591 7.18484 110.483 7.42485 110.421 7.70394Z" fill="white"/>
</svg>
