<svg width="137" height="24" viewBox="0 0 137 24" fill="none" xmlns="http://www.w3.org/2000/svg">
<path fill-rule="evenodd" clip-rule="evenodd" d="M1.38857 14.8434C0.175965 10.3179 -0.430338 8.05514 0.348086 6.17586C0.548488 5.69204 0.811447 5.23659 1.13024 4.82113C2.36853 3.20735 4.63129 2.60105 9.15679 1.38844C13.6823 0.175837 15.9451 -0.430466 17.8243 0.347958C18.3081 0.54836 18.7636 0.811319 19.1791 1.13011C20.7928 2.36841 21.3991 4.63116 22.6117 9.15666C23.8244 13.6822 24.4307 15.9449 23.6522 17.8242C23.4518 18.308 23.1889 18.7635 22.8701 19.1789C21.6318 20.7927 19.369 21.399 14.8435 22.6116L14.8435 22.6116L14.8435 22.6116C10.318 23.8242 8.05526 24.4305 6.17599 23.6521C5.69217 23.4517 5.23672 23.1887 4.82125 22.87C3.20748 21.6317 2.60118 19.3689 1.38857 14.8434L1.38857 14.8434ZM19.0002 11.2535C19.0002 11.7922 18.9358 12.325 18.8069 12.852C18.6781 13.379 18.479 13.8591 18.2097 14.2924C17.9521 14.7257 17.6242 15.0711 17.226 15.3288C16.8278 15.5747 16.3594 15.6976 15.8207 15.6976C15.3874 15.6976 15.0069 15.5981 14.679 15.399C14.3511 15.1882 14.1227 14.9189 13.9939 14.591H13.8534C13.6191 14.8838 13.303 15.1414 12.9048 15.3639C12.5184 15.5864 12.0499 15.6976 11.4995 15.6976C10.4573 15.6976 9.64926 15.3873 9.07544 14.7667C8.51333 14.1343 8.23228 13.3087 8.23228 12.2899C8.23228 11.5053 8.40208 10.8143 8.74169 10.2171C9.0813 9.60815 9.56143 9.13387 10.1821 8.79426C10.8028 8.44294 11.5347 8.26728 12.3778 8.26728C12.9282 8.26728 13.4962 8.31998 14.0817 8.42538C14.679 8.51906 15.1415 8.62446 15.4694 8.74156L15.2938 12.3426C15.2821 12.4597 15.2762 12.5826 15.2762 12.7114V12.9398C15.2762 13.4199 15.3406 13.742 15.4694 13.9059C15.6099 14.0582 15.7622 14.1343 15.9261 14.1343C16.1955 14.1343 16.418 14.0055 16.5936 13.7478C16.7693 13.4785 16.8981 13.1272 16.9801 12.6939C17.0738 12.2489 17.1206 11.7629 17.1206 11.2359C17.1206 10.2522 16.9215 9.42078 16.5234 8.74156C16.1252 8.05064 15.5807 7.52366 14.8897 7.16063C14.2105 6.79761 13.4318 6.61609 12.5535 6.61609C11.6283 6.61609 10.8145 6.76247 10.1118 7.05524C9.40919 7.348 8.81781 7.75787 8.33768 8.28485C7.85754 8.81183 7.49451 9.43249 7.24859 10.1468C7.01438 10.8612 6.89727 11.6399 6.89727 12.4831C6.89727 13.537 7.08464 14.4329 7.45938 15.1707C7.84583 15.8967 8.40208 16.4471 9.12814 16.8219C9.86591 17.1966 10.7676 17.384 11.8333 17.384C12.5125 17.384 13.221 17.3079 13.9588 17.1556C14.6965 17.0034 15.3699 16.816 15.9788 16.5935V18.2447C15.4167 18.4789 14.7902 18.6663 14.0993 18.8068C13.4084 18.9473 12.6764 19.0176 11.9035 19.0176C10.4514 19.0176 9.21011 18.76 8.17958 18.2447C7.14905 17.7294 6.35859 16.9917 5.80819 16.0314C5.2695 15.0594 5.00016 13.8942 5.00016 12.5358C5.00016 11.4701 5.17582 10.4806 5.52714 9.56716C5.87845 8.65373 6.38201 7.85741 7.0378 7.1782C7.7053 6.48728 8.50162 5.95444 9.42676 5.57971C10.3519 5.19326 11.3883 5.00003 12.5359 5.00003C13.4728 5.00003 14.3335 5.14641 15.1181 5.43918C15.9144 5.72023 16.5995 6.13596 17.1733 6.68636C17.7588 7.22504 18.2097 7.88083 18.5259 8.65373C18.8421 9.41492 19.0002 10.2815 19.0002 11.2535ZM10.2172 12.325C10.2172 12.9691 10.3519 13.4317 10.6212 13.7127C10.8906 13.9938 11.2478 14.1343 11.6928 14.1343C12.2783 14.1343 12.6882 13.9235 12.9224 13.5019C13.1683 13.0686 13.3147 12.5065 13.3615 11.8156L13.4669 9.91848C13.3381 9.89505 13.1917 9.87749 13.0278 9.86578C12.8638 9.84236 12.6823 9.83065 12.4832 9.83065C11.9328 9.83065 11.4878 9.95361 11.1482 10.1995C10.8203 10.4337 10.5803 10.7441 10.428 11.1305C10.2875 11.5053 10.2172 11.9034 10.2172 12.325ZM67.8375 18.6321C68.9975 18.6321 70.0375 18.1521 70.5975 17.3721V18.4721H73.3775V4.01212H70.5975V9.45212C70.0375 8.71212 69.0575 8.23212 67.7975 8.23212C64.8775 8.23212 63.0775 10.2921 63.0775 13.4321C63.0775 16.5721 64.8775 18.6321 67.8375 18.6321ZM68.2975 16.2321C66.8175 16.2321 65.8375 15.1121 65.8375 13.4321C65.8375 11.7321 66.8175 10.6121 68.2975 10.6121C69.7775 10.6121 70.7575 11.7321 70.7575 13.4321C70.7575 15.1121 69.7775 16.2321 68.2975 16.2321ZM36.7002 18.6321C39.0602 18.6321 40.6202 17.3721 40.6202 15.4521C40.6202 12.7251 38.6459 12.4658 37.0588 12.2574C35.992 12.1173 35.1002 12.0002 35.1002 11.1721C35.1002 10.5321 35.6402 10.1921 36.4202 10.1921C37.1802 10.1921 37.9602 10.6521 38.0802 11.5121H40.5002C40.4002 9.53212 38.7602 8.23212 36.3402 8.23212C34.2802 8.23212 32.7402 9.49212 32.7402 11.2721C32.7402 13.7706 34.6222 14.0954 36.1682 14.3622C37.2458 14.5482 38.1602 14.706 38.1602 15.5521C38.1602 16.1121 37.5602 16.5321 36.7002 16.5321C35.6602 16.5321 34.9602 15.9721 34.8602 15.0721H32.4602C32.5602 17.2521 34.2402 18.6321 36.7002 18.6321ZM48.5008 15.0521C48.2808 15.9121 47.5408 16.3521 46.4208 16.3521C45.0208 16.3521 44.1208 15.4721 43.9208 14.0521H51.1608C51.1808 13.8321 51.2008 13.5321 51.2008 13.1521C51.2008 10.8521 49.7808 8.23212 46.2208 8.23212C42.8008 8.23212 41.2408 10.8521 41.2408 13.4121C41.2408 15.9521 43.0008 18.6321 46.4208 18.6321C48.9008 18.6321 50.8208 17.2321 51.2208 15.0521H48.5008ZM46.2208 10.2721C47.5608 10.2721 48.3408 11.1721 48.4208 12.2921H43.9608C44.2008 10.8921 44.9608 10.2721 46.2208 10.2721ZM55.1374 12.9521V18.4721H52.3374V8.39212H55.1374V9.79212C55.6974 8.81212 56.8174 8.23212 58.1974 8.23212C60.4774 8.23212 61.9574 9.87212 61.9574 12.1921V18.4721H59.1574V12.8121C59.1574 11.5921 58.3774 10.7121 57.2174 10.7121C55.9974 10.7121 55.1374 11.6521 55.1374 12.9521ZM79.8302 16.3521C80.9502 16.3521 81.6902 15.9121 81.9102 15.0521H84.6302C84.2302 17.2321 82.3102 18.6321 79.8302 18.6321C76.4102 18.6321 74.6502 15.9521 74.6502 13.4121C74.6502 10.8521 76.2102 8.23212 79.6302 8.23212C83.1902 8.23212 84.6102 10.8521 84.6102 13.1521C84.6102 13.5321 84.5902 13.8321 84.5702 14.0521H77.3302C77.5302 15.4721 78.4302 16.3521 79.8302 16.3521ZM81.8302 12.2921C81.7502 11.1721 80.9702 10.2721 79.6302 10.2721C78.3702 10.2721 77.6102 10.8921 77.3702 12.2921H81.8302ZM92.2067 8.39212H91.0667C89.8467 8.39212 89.0867 8.81212 88.5467 10.0721V8.39212H85.7467V18.4721H88.5467V13.5721C88.5467 11.8521 89.1667 10.7121 90.5467 10.7121H92.2067V8.39212ZM96.0406 17.5721V22.5521H93.2606V8.39212H96.0406V9.49212C96.6406 8.71212 97.6406 8.23212 98.9406 8.23212C101.761 8.23212 103.561 10.2921 103.561 13.4321C103.561 16.5721 101.601 18.6321 98.7006 18.6321C97.5606 18.6321 96.5806 18.2521 96.0406 17.5721ZM95.8806 13.4321C95.8806 15.1121 96.8606 16.2321 98.3606 16.2321C99.8206 16.2321 100.821 15.1121 100.821 13.4321C100.821 11.7321 99.8206 10.6121 98.3606 10.6121C96.8606 10.6121 95.8806 11.7321 95.8806 13.4321ZM107.613 18.4721V4.01212H104.833V18.4721H107.613ZM109.011 11.8721C109.131 9.85212 110.771 8.23212 113.531 8.23212C116.071 8.23212 117.931 9.71212 117.931 11.9921V18.4721H115.171V17.0721C114.831 18.0121 113.711 18.6321 112.331 18.6321C110.371 18.6321 109.031 17.3321 109.031 15.6121C109.031 13.6321 110.511 12.4321 112.711 12.4321H114.411C114.911 12.4321 115.171 12.1121 115.171 11.6921C115.171 10.8521 114.511 10.2721 113.371 10.2721C112.151 10.2721 111.531 11.0321 111.491 11.8721H109.011ZM111.691 15.4921C111.691 16.1521 112.251 16.6121 113.031 16.6121C114.391 16.6121 115.171 15.6121 115.171 14.3321V14.1921H113.131C112.291 14.1921 111.691 14.7121 111.691 15.4921ZM120.525 8.39212H118.585V10.7121H120.525V14.8121C120.525 17.1521 122.025 18.4721 124.345 18.4721H126.005V15.9521H124.725C123.825 15.9521 123.305 15.4921 123.305 14.5121V10.7121H126.005V8.39212H123.305V5.41212H120.525V8.39212ZM131.59 16.3521C132.71 16.3521 133.45 15.9121 133.67 15.0521H136.39C135.99 17.2321 134.07 18.6321 131.59 18.6321C128.17 18.6321 126.41 15.9521 126.41 13.4121C126.41 10.8521 127.97 8.23212 131.39 8.23212C134.95 8.23212 136.37 10.8521 136.37 13.1521C136.37 13.5321 136.35 13.8321 136.33 14.0521H129.09C129.29 15.4721 130.19 16.3521 131.59 16.3521ZM133.59 12.2921C133.51 11.1721 132.73 10.2721 131.39 10.2721C130.13 10.2721 129.37 10.8921 129.13 12.2921H133.59Z" fill="#fff"/>
</svg>
