<svg width="120" height="120" viewBox="0 0 120 120" fill="none" xmlns="http://www.w3.org/2000/svg">
<g clip-path="url(#clip0)">
<path d="M119.46 150.509C119.46 127.985 92.5 114.804 92.5 114.804H62.1486H57.3214H26.0506C26.0506 114.804 0 127.985 0 150.509" fill="black"/>
<path d="M119.46 150.509C119.46 127.985 92.5 114.804 92.5 114.804H62.1486H57.3214H26.0506C26.0506 114.804 0 127.985 0 150.509" stroke="black" stroke-width="1.1434" stroke-miterlimit="10" stroke-linecap="round" stroke-linejoin="round"/>
<path d="M42.9495 87.6042V105.694C42.9495 105.694 39.0595 112.546 26.0493 114.804H92.5112C92.5112 114.804 75.8428 111.337 74.6335 105.694V87.6042" fill="white"/>
<path d="M42.9495 87.6042V105.694C42.9495 105.694 39.0595 112.546 26.0493 114.804H92.5112C92.5112 114.804 75.8428 111.337 74.6335 105.694V87.6042" stroke="black" stroke-width="1.1434" stroke-miterlimit="10" stroke-linecap="round" stroke-linejoin="round"/>
<path d="M43.3022 89.0981C43.3022 89.0981 47.9783 98.3796 55.5465 102.693C61.0388 105.827 68.1436 104.608 71.8723 99.4982C73.7366 96.9486 75.1475 93.1997 75.1475 87.6873C75.1475 87.6873 69.0908 95.6687 60.0613 96.0416C51.0217 96.4145 43.3022 89.0981 43.3022 89.0981Z" fill="black"/>
<path d="M81.9719 61.4956C81.9719 61.4956 84.4107 57.9786 87.2929 59.6817C90.1852 61.3848 89.2681 67.6934 87.2929 70.8477C85.3177 74.002 82.1432 75.5539 80.3796 73.1353" fill="white"/>
<path d="M81.9719 61.4956C81.9719 61.4956 84.4107 57.9786 87.2929 59.6817C90.1852 61.3848 89.2681 67.6934 87.2929 70.8477C85.3177 74.002 82.1432 75.5539 80.3796 73.1353" stroke="black" stroke-width="1.1434" stroke-miterlimit="10"/>
<path d="M86.9801 63.6222C86.9801 63.6222 83.725 62.5338 81.4172 67.3307Z" fill="white"/>
<path d="M86.9801 63.6222C86.9801 63.6222 83.725 62.5338 81.4172 67.3307" stroke="black" stroke-width="0.5717" stroke-miterlimit="10" stroke-linecap="round" stroke-linejoin="round"/>
<path d="M82.9885 64.9927C82.9885 64.9927 86.5358 66.8873 84.1878 69.7392Z" fill="white"/>
<path d="M82.9885 64.9927C82.9885 64.9927 86.5358 66.8873 84.1878 69.7392" stroke="black" stroke-width="0.5717" stroke-miterlimit="10" stroke-linecap="round" stroke-linejoin="round"/>
<path d="M35.1004 61.4956C35.1004 61.4956 32.6617 57.9786 29.7795 59.6817C26.8872 61.3848 27.8042 67.6934 29.7795 70.8477C31.7547 74.002 34.9291 75.5539 36.6927 73.1353" fill="white"/>
<path d="M35.1004 61.4956C35.1004 61.4956 32.6617 57.9786 29.7795 59.6817C26.8872 61.3848 27.8042 67.6934 29.7795 70.8477C31.7547 74.002 34.9291 75.5539 36.6927 73.1353" stroke="black" stroke-width="1.1434" stroke-miterlimit="10"/>
<path d="M30.0911 63.6222C30.0911 63.6222 33.3461 62.5338 35.6539 67.3307Z" fill="white"/>
<path d="M30.0911 63.6222C30.0911 63.6222 33.3461 62.5338 35.6539 67.3307" stroke="black" stroke-width="0.5717" stroke-miterlimit="10" stroke-linecap="round" stroke-linejoin="round"/>
<path d="M34.0725 64.9927C34.0725 64.9927 30.5252 66.8873 32.8733 69.7392Z" fill="white"/>
<path d="M34.0725 64.9927C34.0725 64.9927 30.5252 66.8873 32.8733 69.7392" stroke="black" stroke-width="0.5717" stroke-miterlimit="10" stroke-linecap="round" stroke-linejoin="round"/>
<path d="M81.9714 53.0105C81.9714 53.0105 84.8637 96.0419 58.8433 96.0419C32.8229 96.0419 34.919 53.0105 34.919 53.0105C34.919 53.0105 33.6593 27.4133 59.7301 27.4133C83.997 27.4133 81.9714 53.0105 81.9714 53.0105Z" fill="white" stroke="black" stroke-width="1.1434" stroke-miterlimit="10"/>
<path d="M57.3225 60.6895V69.7089C57.3225 69.9911 57.3729 70.2632 57.4737 70.505C57.8566 71.4725 58.9752 71.9361 59.983 71.6741L62.1497 71.0996" stroke="black" stroke-width="1.0824" stroke-miterlimit="10" stroke-linecap="round" stroke-linejoin="round"/>
<path d="M55.2368 46.3794C55.0554 46.6616 53.9267 50.2391 53.9267 50.2391H41.491L45.7135 47.8507C46.7817 47.3166 47.9406 46.9941 49.1399 46.8934L55.2368 46.3794Z" fill="black"/>
<path d="M63.0769 46.3794C63.2684 46.6616 64.3971 50.2391 64.3971 50.2391H76.8228L72.6002 47.8507C71.532 47.3166 70.3731 46.9941 69.1739 46.8934L63.0769 46.3794Z" fill="black"/>
<path d="M48.9982 60.8811C50.1892 60.8811 51.1548 59.9155 51.1548 58.7245C51.1548 57.5334 50.1892 56.5679 48.9982 56.5679C47.8071 56.5679 46.8416 57.5334 46.8416 58.7245C46.8416 59.9155 47.8071 60.8811 48.9982 60.8811Z" fill="black"/>
<path d="M71.2597 58.7245C71.2597 59.9136 70.2923 60.8811 69.1031 60.8811C67.914 60.8811 66.9465 59.9136 66.9465 58.7245C66.9465 57.5353 67.914 56.5679 69.1031 56.5679C70.2923 56.5679 71.2597 57.5353 71.2597 58.7245Z" fill="black"/>
<path d="M52.9079 60.8809L47.5466 64.4282" stroke="black" stroke-width="0.5717" stroke-miterlimit="10" stroke-linecap="round" stroke-linejoin="round"/>
<path d="M65.707 61.2742L70.4536 64.8517" stroke="black" stroke-width="0.5717" stroke-miterlimit="10" stroke-linecap="round" stroke-linejoin="round"/>
<path d="M51.7498 76.1084C51.7498 76.1084 55.2971 78.5875 59.5901 78.5875C63.8832 78.5875 66.8561 76.1084 66.8561 76.1084" stroke="black" stroke-width="1.0824" stroke-miterlimit="10" stroke-linecap="round" stroke-linejoin="round"/>
<path d="M46.8727 68.3384C51.8707 68.3384 55.9224 64.2867 55.9224 59.2887C55.9224 54.2907 51.8707 50.239 46.8727 50.239C41.8747 50.239 37.823 54.2907 37.823 59.2887C37.823 64.2867 41.8747 68.3384 46.8727 68.3384Z" stroke="black" stroke-width="0.5354" stroke-miterlimit="10" stroke-linecap="round" stroke-linejoin="round"/>
<path d="M69.1041 68.3384C74.1021 68.3384 78.1538 64.2867 78.1538 59.2887C78.1538 54.2907 74.1021 50.239 69.1041 50.239C64.1061 50.239 60.0544 54.2907 60.0544 59.2887C60.0544 64.2867 64.1061 68.3384 69.1041 68.3384Z" stroke="black" stroke-width="0.5354" stroke-miterlimit="10" stroke-linecap="round" stroke-linejoin="round"/>
<path d="M55.9224 59.2887C55.9224 59.2887 58.0689 57.2933 60.0542 59.2887" stroke="black" stroke-width="0.5354" stroke-miterlimit="10" stroke-linecap="round" stroke-linejoin="round"/>
<path d="M38.1655 61.7273L34.981 59.218" stroke="black" stroke-width="0.5354" stroke-miterlimit="10" stroke-linecap="round" stroke-linejoin="round"/>
<path d="M77.8306 61.7275L82.0732 58.3918" stroke="black" stroke-width="0.5354" stroke-miterlimit="10" stroke-linecap="round" stroke-linejoin="round"/>
<path d="M58.4403 22.2132C26.333 17.507 29.9509 43.7793 34.768 60.881C34.768 60.881 39.061 52.9096 38.2045 47.2762C51.1542 22.2132 72.3474 35.3141 72.428 35.2637C73.6676 45.0995 82.1832 59.6919 82.1832 59.6919C86.9801 43.7793 91.6057 27.0706 58.4403 22.2132Z" fill="black"/>
<path d="M70.8045 28.3907C68.789 23.3418 64.5564 18.7767 55.7687 19.0085C54.9524 19.0286 54.1462 19.1798 53.3803 19.4418C50.9315 20.248 45.933 22.4953 44.7942 27.5543L45.3686 31.938C46.6082 35.5257 50.0345 40.635 59.5277 42.7614C59.5277 42.7614 53.2896 38.5993 49.7826 33.6512C52.8361 36.5536 59.2757 40.3831 72.4169 41.2901C72.4169 41.2901 72.8301 37.7931 72.1751 33.5807L70.8045 28.3907Z" fill="black"/>
</g>
<defs>
<clipPath id="clip0">
<rect width="120" height="120" fill="white"/>
</clipPath>
</defs>
</svg>
