<svg width="120" height="120" viewBox="0 0 120 120" fill="none" xmlns="http://www.w3.org/2000/svg">
<g clip-path="url(#clip0)">
<path d="M119.46 150.509C119.46 127.985 92.5 114.804 92.5 114.804H62.1486H57.3214H26.0506C26.0506 114.804 0 127.985 0 150.509" fill="#05132E"/>
<path d="M119.46 150.509C119.46 127.985 92.5 114.804 92.5 114.804H62.1486H57.3214H26.0506C26.0506 114.804 0 127.985 0 150.509" stroke="#05132E" stroke-width="1.1434" stroke-miterlimit="10" stroke-linecap="round" stroke-linejoin="round"/>
<path d="M42.95 87.6042V105.694C42.95 105.694 39.06 112.546 26.0498 114.804H92.5116C92.5116 114.804 75.8433 111.337 74.634 105.694V87.6042" fill="white"/>
<path d="M42.95 87.6042V105.694C42.95 105.694 39.06 112.546 26.0498 114.804H92.5116C92.5116 114.804 75.8433 111.337 74.634 105.694V87.6042" stroke="#05132E" stroke-width="1.1434" stroke-miterlimit="10" stroke-linecap="round" stroke-linejoin="round"/>
<path d="M43.3027 89.0981C43.3027 89.0981 47.9787 98.3796 55.547 102.693C61.0393 105.827 68.144 104.608 71.8728 99.4982C73.7371 96.9486 75.148 93.1997 75.148 87.6873C75.148 87.6873 69.0913 95.6687 60.0618 96.0416C51.0222 96.4145 43.3027 89.0981 43.3027 89.0981Z" fill="#05132E"/>
<path d="M81.9721 61.4956C81.9721 61.4956 84.4109 57.9786 87.2931 59.6817C90.1854 61.3848 89.2683 67.6934 87.2931 70.8477C85.3179 74.002 82.1435 75.5539 80.3799 73.1353" fill="white"/>
<path d="M81.9721 61.4956C81.9721 61.4956 84.4109 57.9786 87.2931 59.6817C90.1854 61.3848 89.2683 67.6934 87.2931 70.8477C85.3179 74.002 82.1435 75.5539 80.3799 73.1353" stroke="#05132E" stroke-width="1.1434" stroke-miterlimit="10"/>
<path d="M86.9808 63.6222C86.9808 63.6222 83.7257 62.5338 81.418 67.3307Z" fill="white"/>
<path d="M86.9808 63.6222C86.9808 63.6222 83.7257 62.5338 81.418 67.3307" stroke="#05132E" stroke-width="0.5717" stroke-miterlimit="10" stroke-linecap="round" stroke-linejoin="round"/>
<path d="M82.9893 64.9927C82.9893 64.9927 86.5366 66.8873 84.1885 69.7392Z" fill="white"/>
<path d="M82.9893 64.9927C82.9893 64.9927 86.5366 66.8873 84.1885 69.7392" stroke="#05132E" stroke-width="0.5717" stroke-miterlimit="10" stroke-linecap="round" stroke-linejoin="round"/>
<path d="M35.1007 61.4956C35.1007 61.4956 32.6619 57.9786 29.7797 59.6817C26.8874 61.3848 27.8045 67.6934 29.7797 70.8477C31.7549 74.002 34.9294 75.5539 36.6929 73.1353" fill="white"/>
<path d="M35.1007 61.4956C35.1007 61.4956 32.6619 57.9786 29.7797 59.6817C26.8874 61.3848 27.8045 67.6934 29.7797 70.8477C31.7549 74.002 34.9294 75.5539 36.6929 73.1353" stroke="#05132E" stroke-width="1.1434" stroke-miterlimit="10"/>
<path d="M30.0908 63.6222C30.0908 63.6222 33.3459 62.5338 35.6537 67.3307Z" fill="white"/>
<path d="M30.0908 63.6222C30.0908 63.6222 33.3459 62.5338 35.6537 67.3307" stroke="#05132E" stroke-width="0.5717" stroke-miterlimit="10" stroke-linecap="round" stroke-linejoin="round"/>
<path d="M34.0718 64.9927C34.0718 64.9927 30.5245 66.8873 32.8726 69.7392Z" fill="white"/>
<path d="M34.0718 64.9927C34.0718 64.9927 30.5245 66.8873 32.8726 69.7392" stroke="#05132E" stroke-width="0.5717" stroke-miterlimit="10" stroke-linecap="round" stroke-linejoin="round"/>
<path d="M81.9716 53.0105C81.9716 53.0105 84.8639 96.0419 58.8435 96.0419C32.8231 96.0419 34.9193 53.0105 34.9193 53.0105C34.9193 53.0105 33.6596 27.4133 59.7303 27.4133C83.9972 27.4133 81.9716 53.0105 81.9716 53.0105Z" fill="white" stroke="#05132E" stroke-width="1.1434" stroke-miterlimit="10"/>
<path d="M57.3232 60.6895V69.7089C57.3232 69.9911 57.3736 70.2632 57.4744 70.505C57.8574 71.4725 58.976 71.9361 59.9837 71.6741L62.1504 71.0996" stroke="#05132E" stroke-width="1.0824" stroke-miterlimit="10" stroke-linecap="round" stroke-linejoin="round"/>
<path d="M55.2371 46.3794C55.0557 46.6616 53.927 50.2391 53.927 50.2391H41.4912L45.7137 47.8507C46.782 47.3166 47.9409 46.9941 49.1401 46.8934L55.2371 46.3794Z" fill="#05132E"/>
<path d="M63.0771 46.3794C63.2686 46.6616 64.3973 50.2391 64.3973 50.2391H76.823L72.6005 47.8507C71.5323 47.3166 70.3733 46.9941 69.1741 46.8934L63.0771 46.3794Z" fill="#05132E"/>
<path d="M48.9984 60.8811C50.1895 60.8811 51.155 59.9155 51.155 58.7245C51.155 57.5334 50.1895 56.5679 48.9984 56.5679C47.8073 56.5679 46.8418 57.5334 46.8418 58.7245C46.8418 59.9155 47.8073 60.8811 48.9984 60.8811Z" fill="#05132E"/>
<path d="M71.2605 58.7245C71.2605 59.9136 70.293 60.8811 69.1039 60.8811C67.9147 60.8811 66.9473 59.9136 66.9473 58.7245C66.9473 57.5353 67.9147 56.5679 69.1039 56.5679C70.293 56.5679 71.2605 57.5353 71.2605 58.7245Z" fill="#05132E"/>
<path d="M52.9082 60.8809L47.5469 64.4282" stroke="#05132E" stroke-width="0.5717" stroke-miterlimit="10" stroke-linecap="round" stroke-linejoin="round"/>
<path d="M65.707 61.2742L70.4536 64.8517" stroke="#05132E" stroke-width="0.5717" stroke-miterlimit="10" stroke-linecap="round" stroke-linejoin="round"/>
<path d="M51.75 76.1084C51.75 76.1084 55.2973 78.5875 59.5904 78.5875C63.8834 78.5875 66.8563 76.1084 66.8563 76.1084" stroke="#05132E" stroke-width="1.0824" stroke-miterlimit="10" stroke-linecap="round" stroke-linejoin="round"/>
<path d="M46.8729 68.3384C51.8709 68.3384 55.9226 64.2867 55.9226 59.2887C55.9226 54.2907 51.8709 50.239 46.8729 50.239C41.8749 50.239 37.8232 54.2907 37.8232 59.2887C37.8232 64.2867 41.8749 68.3384 46.8729 68.3384Z" stroke="#05132E" stroke-width="0.5354" stroke-miterlimit="10" stroke-linecap="round" stroke-linejoin="round"/>
<path d="M69.1044 68.3384C74.1024 68.3384 78.1541 64.2867 78.1541 59.2887C78.1541 54.2907 74.1024 50.239 69.1044 50.239C64.1064 50.239 60.0547 54.2907 60.0547 59.2887C60.0547 64.2867 64.1064 68.3384 69.1044 68.3384Z" stroke="#05132E" stroke-width="0.5354" stroke-miterlimit="10" stroke-linecap="round" stroke-linejoin="round"/>
<path d="M55.9229 59.2887C55.9229 59.2887 58.0694 57.2933 60.0547 59.2887" stroke="#05132E" stroke-width="0.5354" stroke-miterlimit="10" stroke-linecap="round" stroke-linejoin="round"/>
<path d="M38.166 61.7273L34.9814 59.218" stroke="#05132E" stroke-width="0.5354" stroke-miterlimit="10" stroke-linecap="round" stroke-linejoin="round"/>
<path d="M77.8311 61.7275L82.0737 58.3918" stroke="#05132E" stroke-width="0.5354" stroke-miterlimit="10" stroke-linecap="round" stroke-linejoin="round"/>
<path d="M58.4408 22.2132C26.3335 17.507 29.9514 43.7793 34.7685 60.881C34.7685 60.881 39.0615 52.9096 38.2049 47.2762C51.1547 22.2132 72.3479 35.3141 72.4285 35.2637C73.6681 45.0995 82.1836 59.6919 82.1836 59.6919C86.9806 43.7793 91.6062 27.0706 58.4408 22.2132Z" fill="#05132E"/>
<path d="M70.8043 28.3907C68.7887 23.3418 64.5561 18.7767 55.7685 19.0085C54.9522 19.0286 54.146 19.1798 53.3801 19.4418C50.9312 20.248 45.9327 22.4953 44.7939 27.5543L45.3684 31.938C46.6079 35.5257 50.0343 40.635 59.5274 42.7614C59.5274 42.7614 53.2894 38.5993 49.7824 33.6512C52.8359 36.5536 59.2755 40.3831 72.4167 41.2901C72.4167 41.2901 72.8299 37.7931 72.1748 33.5807L70.8043 28.3907Z" fill="#05132E"/>
</g>
<defs>
<clipPath id="clip0">
<rect width="120" height="120" fill="white"/>
</clipPath>
</defs>
</svg>
