<svg width="143" height="24" viewBox="0 0 143 24" fill="none" xmlns="http://www.w3.org/2000/svg">
<path fill-rule="evenodd" clip-rule="evenodd" d="M14.5 6V2.5H21.5V6C21.5 7.933 19.933 9.5 18 9.5C16.067 9.5 14.5 7.933 14.5 6ZM18 12C19.3062 12 20.5149 11.5826 21.5 10.874V12C21.5 17.2467 17.2467 21.5 12 21.5C6.75329 21.5 2.5 17.2467 2.5 12V2.5H12V6C12 9.31371 14.6863 12 18 12ZM24 0H12H0V12C0 18.6274 5.37258 24 12 24C18.6274 24 24 18.6274 24 12V6V0ZM60.6387 19.0001H62.9526V9.18191H60.6387V19.0001ZM61.802 7.78844C62.5371 7.78844 63.138 7.22594 63.138 6.5356C63.138 5.83887 62.5371 5.27637 61.802 5.27637C61.0605 5.27637 60.4597 5.83887 60.4597 6.5356C60.4597 7.22594 61.0605 7.78844 61.802 7.78844ZM45.5431 14.2636V5.90918H47.9146V14.4617C47.9146 17.2742 45.7924 19.1982 42.6028 19.1982C39.4004 19.1982 37.291 17.2742 37.291 14.4617V5.90918H39.6625V14.2636C39.6625 15.9063 40.8002 17.0825 42.6028 17.0825C44.399 17.0825 45.5431 15.9063 45.5431 14.2636ZM54.4212 11.01C53.2004 11.01 52.3438 11.8282 52.3438 13.2472V19.0001H50.0299V9.18191H52.2416V10.8502H52.3566C52.8041 9.75719 53.814 9.05407 55.2842 9.05407C57.3105 9.05407 58.6528 10.3964 58.6464 12.7487V19.0001H56.3325V13.1066C56.3325 11.7963 55.6166 11.01 54.4212 11.01ZM67.906 9.18191H69.945V10.9717H67.906V19.0001H65.5921V10.9717H64.1411V9.18191H65.5921V8.25506C65.5921 6.27353 66.9536 5.29554 68.6602 5.29554C69.4592 5.29554 70.1176 5.46174 70.418 5.56401L69.9514 7.35378C69.7597 7.29625 69.4529 7.21316 69.0885 7.21316C68.2256 7.21316 67.906 7.64142 67.906 8.40847V9.18191ZM75.3107 19.1919C78.1871 19.1919 80.0153 17.1656 80.0153 14.1294C80.0153 11.0867 78.1871 9.05407 75.3107 9.05407C72.4343 9.05407 70.6062 11.0867 70.6062 14.1294C70.6062 17.1656 72.4343 19.1919 75.3107 19.1919ZM75.3235 17.3382C73.7319 17.3382 72.952 15.9191 72.952 14.123C72.952 12.3268 73.7319 10.8886 75.3235 10.8886C76.8895 10.8886 77.6694 12.3268 77.6694 14.123C77.6694 15.9191 76.8895 17.3382 75.3235 17.3382ZM83.9331 19.0001H81.6192V9.18191H83.8628V10.8183H83.9651C84.323 9.68049 85.2627 9.04128 86.3877 9.04128C86.6434 9.04128 87.0077 9.06685 87.2186 9.1052V11.2338C87.0205 11.1698 86.5347 11.0995 86.1448 11.0995C84.8728 11.0995 83.9331 11.9816 83.9331 13.2281V19.0001ZM88.3959 19.0001H90.7099V13.0299C90.7099 11.8218 91.5152 11.0036 92.5124 11.0036C93.4904 11.0036 94.1616 11.662 94.1616 12.672V19.0001H96.4307V12.8765C96.4307 11.7707 97.0891 11.0036 98.2077 11.0036C99.141 11.0036 99.8824 11.5534 99.8824 12.7678V19.0001H102.203V12.4099C102.203 10.2174 100.937 9.05407 99.1346 9.05407C97.7091 9.05407 96.6225 9.75719 96.1878 10.8502H96.0856C95.7084 9.73801 94.756 9.05407 93.4329 9.05407C92.1161 9.05407 91.1317 9.73162 90.7226 10.8502H90.6076V9.18191H88.3959V19.0001ZM114.061 5.7302C116.963 5.7302 119.2 7.4177 119.603 10.3261H117.212C116.937 8.76003 115.691 7.85875 114.099 7.85875C111.958 7.85875 110.449 9.50151 110.449 12.4546C110.449 15.4589 111.97 17.0505 114.093 17.0505C115.659 17.0505 116.912 16.1876 117.212 14.6535L119.603 14.6663C119.238 17.1656 117.174 19.1791 114.061 19.1791C110.609 19.1791 108.065 16.6798 108.065 12.4546C108.065 8.2231 110.641 5.7302 114.061 5.7302ZM128.529 9.5079H130.811C130.766 7.29625 128.88 5.7302 126.093 5.7302C123.345 5.7302 121.28 7.27708 121.286 9.591C121.286 11.4703 122.622 12.5505 124.777 13.1066L126.266 13.4901C127.679 13.8481 128.612 14.2892 128.618 15.3055C128.612 16.4241 127.551 17.172 126.004 17.172C124.521 17.172 123.37 16.5072 123.274 15.1329H120.941C121.037 17.7345 122.974 19.1982 126.023 19.1982C129.161 19.1982 130.983 17.6322 130.99 15.3247C130.983 13.0555 129.11 12.02 127.142 11.5534L125.914 11.2465C124.84 10.9909 123.677 10.537 123.69 9.44398C123.696 8.45961 124.578 7.7373 126.061 7.7373C127.474 7.7373 128.407 8.39569 128.529 9.5079ZM142.14 9.5079H139.858C139.737 8.39569 138.803 7.7373 137.391 7.7373C135.908 7.7373 135.026 8.45961 135.019 9.44398C135.007 10.537 136.17 10.9909 137.244 11.2465L138.471 11.5534C140.44 12.02 142.313 13.0555 142.319 15.3247C142.313 17.6322 140.491 19.1982 137.352 19.1982C134.303 19.1982 132.367 17.7345 132.271 15.1329H134.604C134.7 16.5072 135.85 17.172 137.333 17.172C138.88 17.172 139.941 16.4241 139.948 15.3055C139.941 14.2892 139.008 13.8481 137.595 13.4901L136.106 13.1066C133.952 12.5505 132.616 11.4703 132.616 9.591C132.61 7.27708 134.674 5.7302 137.423 5.7302C140.21 5.7302 142.095 7.29625 142.14 9.5079Z" fill="black"/>
</svg>
