<svg width="126" height="20" viewBox="0 0 126 20" fill="none" xmlns="http://www.w3.org/2000/svg">
<path fill-rule="evenodd" clip-rule="evenodd" d="M1 0C0.447715 0 0 0.447715 0 1V10C0 15.5228 4.47715 20 10 20C15.5228 20 20 15.5228 20 10V1C20 0.447715 19.5523 0 19 0H1ZM9 2H2V10C2 14.4183 5.58172 18 10 18C14.4183 18 18 14.4183 18 10V9.74284C17.0491 10.5282 15.8296 11 14.5 11C11.4624 11 9 8.53757 9 5.5V2ZM18 5.5V2H11V5.5C11 7.433 12.567 9 14.5 9C16.433 9 18 7.433 18 5.5Z" fill="white"/>
<path d="M36 7.37996V12.88C36 14.36 35.04 15.44 33.66 15.44C32.42 15.44 31.56 14.48 31.56 13.1V7.37996H29.12V13.62C29.12 15.98 30.6 17.62 32.86 17.62C34.3 17.62 35.44 17 36 15.9V17.46H38.46V7.37996H36Z" fill="white"/>
<path d="M42.7225 17.46V11.96C42.7225 10.48 43.6825 9.39995 45.0625 9.39995C46.3225 9.39995 47.1625 10.36 47.1625 11.74V17.46H49.6225V11.22C49.6225 8.85996 48.1425 7.21995 45.8625 7.21995C44.4225 7.21995 43.2825 7.83995 42.7225 8.93995V7.37996H40.2625V17.46H42.7225Z" fill="white"/>
<path d="M51.305 5.79996H54.025V2.99995H51.305V5.79996ZM53.885 17.46V7.37996H51.425V17.46H53.885Z" fill="white"/>
<path d="M59.393 17.46V9.43995H62.333V7.37996H59.393V6.55995C59.393 5.67995 59.953 5.13995 60.813 5.13995H62.333V3.05995H60.533C58.353 3.05995 56.933 4.39995 56.933 6.43996V7.37996H54.953V9.43995H56.933V17.46H59.393Z" fill="white"/>
<path d="M67.6502 17.62C70.7102 17.62 72.9102 15.42 72.9102 12.42C72.9102 9.41996 70.7102 7.21995 67.6502 7.21995C64.5702 7.21995 62.3702 9.41996 62.3702 12.42C62.3702 15.42 64.5702 17.62 67.6502 17.62ZM67.6502 15.5C65.9702 15.5 64.8502 14.24 64.8502 12.42C64.8502 10.6 65.9702 9.33995 67.6502 9.33995C69.3102 9.33995 70.4302 10.6 70.4302 12.42C70.4302 14.24 69.3102 15.5 67.6502 15.5Z" fill="white"/>
<path d="M80.3903 7.37996H79.2103C77.9103 7.37996 77.1303 7.87995 76.6303 9.15996V7.37996H74.1703V17.46H76.6303V12.7C76.6303 10.78 77.2503 9.43995 78.8103 9.43995H80.3903V7.37996Z" fill="white"/>
<path d="M83.867 17.46V11.68C83.867 10.26 84.687 9.31995 85.987 9.31995C87.167 9.31995 87.907 10.26 87.907 11.68V17.46H90.347V11.68C90.347 10.26 91.167 9.31995 92.487 9.31995C93.667 9.31995 94.407 10.26 94.407 11.68V17.46H96.847V10.94C96.847 8.79995 95.447 7.21995 93.267 7.21995C91.667 7.21995 90.387 8.09996 89.927 9.13996C89.487 7.89996 88.387 7.21995 86.787 7.21995C85.367 7.21995 84.367 7.93996 83.867 8.95996V7.37996H81.407V17.46H83.867Z" fill="white"/>
<path d="M103.224 17.62C105.824 17.62 107.784 16.04 108.104 13.84H105.624C105.384 14.84 104.484 15.5 103.324 15.5C101.604 15.5 100.664 14.18 100.664 12.42C100.664 10.66 101.584 9.33995 103.284 9.33995C104.444 9.33995 105.424 10.06 105.604 11.06H108.044C107.824 8.73995 105.764 7.21995 103.224 7.21995C100.084 7.21995 98.1037 9.53995 98.1037 12.42C98.1037 15.3 100.084 17.62 103.224 17.62Z" fill="white"/>
<path d="M112.821 17.62C115.181 17.62 116.721 16.38 116.721 14.48C116.721 9.91995 111.121 12.32 111.121 10.14C111.121 9.45995 111.701 9.05995 112.581 9.05995C113.361 9.05995 114.221 9.53995 114.361 10.48H116.601C116.501 8.51995 114.881 7.21995 112.521 7.21995C110.441 7.21995 108.901 8.45995 108.901 10.22C108.901 14.48 114.421 12.34 114.421 14.58C114.421 15.18 113.781 15.66 112.821 15.66C111.721 15.66 110.981 15.06 110.881 14.1H108.641C108.761 16.26 110.381 17.62 112.821 17.62Z" fill="white"/>
<path d="M121.679 17.62C124.039 17.62 125.579 16.38 125.579 14.48C125.579 9.91995 119.979 12.32 119.979 10.14C119.979 9.45995 120.559 9.05995 121.439 9.05995C122.219 9.05995 123.079 9.53995 123.219 10.48H125.459C125.359 8.51995 123.739 7.21995 121.379 7.21995C119.299 7.21995 117.759 8.45995 117.759 10.22C117.759 14.48 123.279 12.34 123.279 14.58C123.279 15.18 122.639 15.66 121.679 15.66C120.579 15.66 119.839 15.06 119.739 14.1H117.499C117.619 16.26 119.239 17.62 121.679 17.62Z" fill="white"/>
</svg>
