<svg width="126" height="20" viewBox="0 0 126 20" fill="none" xmlns="http://www.w3.org/2000/svg">
<path fill-rule="evenodd" clip-rule="evenodd" d="M0 1C0 0.447715 0.447715 0 1 0H19C19.5523 0 20 0.447715 20 1V10C20 15.5228 15.5228 20 10 20C4.47715 20 0 15.5228 0 10V1ZM2 2H9V5.5C9 8.53757 11.4624 11 14.5 11C15.8296 11 17.0491 10.5282 18 9.74284V10C18 14.4183 14.4183 18 10 18C5.58172 18 2 14.4183 2 10V2ZM18 2V5.5C18 7.433 16.433 9 14.5 9C12.567 9 11 7.433 11 5.5V2H18Z" fill="black"/>
<path d="M51.305 5.8H54.025V3H51.305V5.8Z" fill="black"/>
<path d="M53.885 17.46V7.38H51.425V17.46H53.885Z" fill="black"/>
<path d="M42.7225 11.96V17.46H40.2625V7.38H42.7225V8.94C43.2825 7.84 44.4225 7.22 45.8625 7.22C48.1425 7.22 49.6225 8.86 49.6225 11.22V17.46H47.1625V11.74C47.1625 10.36 46.3225 9.4 45.0625 9.4C43.6825 9.4 42.7225 10.48 42.7225 11.96Z" fill="black"/>
<path d="M36 12.88V7.38H38.46V17.46H36V15.9C35.44 17 34.3 17.62 32.86 17.62C30.6 17.62 29.12 15.98 29.12 13.62V7.38H31.56V13.1C31.56 14.48 32.42 15.44 33.66 15.44C35.04 15.44 36 14.36 36 12.88Z" fill="black"/>
<path d="M59.393 9.44V17.46H56.933V9.44H54.953V7.38H56.933V6.44C56.933 4.4 58.353 3.06 60.533 3.06H62.333V5.14H60.813C59.953 5.14 59.393 5.68 59.393 6.56V7.38H62.333V9.44H59.393Z" fill="black"/>
<path fill-rule="evenodd" clip-rule="evenodd" d="M67.6502 17.62C70.7102 17.62 72.9102 15.42 72.9102 12.42C72.9102 9.42 70.7102 7.22 67.6502 7.22C64.5702 7.22 62.3702 9.42 62.3702 12.42C62.3702 15.42 64.5702 17.62 67.6502 17.62ZM67.6502 15.5C65.9702 15.5 64.8502 14.24 64.8502 12.42C64.8502 10.6 65.9702 9.34 67.6502 9.34C69.3102 9.34 70.4302 10.6 70.4302 12.42C70.4302 14.24 69.3102 15.5 67.6502 15.5Z" fill="black"/>
<path d="M79.2103 7.38H80.3903V9.44H78.8103C77.2503 9.44 76.6303 10.78 76.6303 12.7V17.46H74.1703V7.38H76.6303V9.16C77.1303 7.88 77.9103 7.38 79.2103 7.38Z" fill="black"/>
<path d="M83.867 17.46V11.68C83.867 10.26 84.687 9.32 85.987 9.32C87.167 9.32 87.907 10.26 87.907 11.68V17.46H90.347V11.68C90.347 10.26 91.167 9.32 92.487 9.32C93.667 9.32 94.407 10.26 94.407 11.68V17.46H96.847V10.94C96.847 8.8 95.447 7.22 93.267 7.22C91.667 7.22 90.387 8.1 89.927 9.14C89.487 7.9 88.387 7.22 86.787 7.22C85.367 7.22 84.367 7.94 83.867 8.96V7.38H81.407V17.46H83.867Z" fill="black"/>
<path d="M108.104 13.84C107.784 16.04 105.824 17.62 103.224 17.62C100.084 17.62 98.1037 15.3 98.1037 12.42C98.1037 9.54 100.084 7.22 103.224 7.22C105.764 7.22 107.824 8.74 108.044 11.06H105.604C105.424 10.06 104.444 9.34 103.284 9.34C101.584 9.34 100.664 10.66 100.664 12.42C100.664 14.18 101.604 15.5 103.324 15.5C104.484 15.5 105.384 14.84 105.624 13.84H108.104Z" fill="black"/>
<path d="M112.821 17.62C115.181 17.62 116.721 16.38 116.721 14.48C116.721 11.784 114.764 11.5209 113.164 11.3057C112.057 11.157 111.121 11.0311 111.121 10.14C111.121 9.46 111.701 9.06 112.581 9.06C113.361 9.06 114.221 9.54 114.361 10.48H116.601C116.501 8.52 114.881 7.22 112.521 7.22C110.441 7.22 108.901 8.46 108.901 10.22C108.901 12.6894 110.756 13.0083 112.315 13.2764C113.446 13.4708 114.421 13.6384 114.421 14.58C114.421 15.18 113.781 15.66 112.821 15.66C111.721 15.66 110.981 15.06 110.881 14.1H108.641C108.761 16.26 110.381 17.62 112.821 17.62Z" fill="black"/>
<path d="M125.579 14.48C125.579 16.38 124.039 17.62 121.679 17.62C119.239 17.62 117.619 16.26 117.499 14.1H119.739C119.839 15.06 120.579 15.66 121.679 15.66C122.639 15.66 123.279 15.18 123.279 14.58C123.279 13.6384 122.304 13.4708 121.173 13.2764C119.614 13.0083 117.759 12.6894 117.759 10.22C117.759 8.46 119.299 7.22 121.379 7.22C123.739 7.22 125.359 8.52 125.459 10.48H123.219C123.079 9.54 122.219 9.06 121.439 9.06C120.559 9.06 119.979 9.46 119.979 10.14C119.979 11.0311 120.915 11.157 122.021 11.3057C123.622 11.5209 125.579 11.784 125.579 14.48Z" fill="black"/>
</svg>
