<svg width="143" height="24" viewBox="0 0 143 24" fill="none" xmlns="http://www.w3.org/2000/svg">
<path d="M0 0H24V12C24 18.6274 18.6274 24 12 24V24C5.37258 24 0 18.6274 0 12V0Z" fill="url(#paint0_linear)"/>
<path d="M12 0H24V6C24 9.31371 21.3137 12 18 12V12C14.6863 12 12 9.31371 12 6V0Z" fill="black"/>
<path d="M45.5434 5.90918V14.2636C45.5434 15.9063 44.3992 17.0825 42.6031 17.0825C40.8005 17.0825 39.6627 15.9063 39.6627 14.2636V5.90918H37.2913V14.4617C37.2913 17.2742 39.4006 19.1982 42.6031 19.1982C45.7927 19.1982 47.9148 17.2742 47.9148 14.4617V5.90918H45.5434Z" fill="black"/>
<path d="M52.3441 13.2472C52.3441 11.8282 53.2006 11.01 54.4215 11.01C55.6168 11.01 56.3327 11.7963 56.3327 13.1066V19.0001H58.6466V12.7487C58.653 10.3964 57.3107 9.05407 55.2844 9.05407C53.8143 9.05407 52.8043 9.75719 52.3569 10.8502H52.2418V9.18191H50.0302V19.0001H52.3441V13.2472Z" fill="black"/>
<path d="M60.6389 19.0001H62.9528V9.18191H60.6389V19.0001ZM61.8023 7.78844C62.5373 7.78844 63.1382 7.22594 63.1382 6.5356C63.1382 5.83887 62.5373 5.27637 61.8023 5.27637C61.0608 5.27637 60.4599 5.83887 60.4599 6.5356C60.4599 7.22594 61.0608 7.78844 61.8023 7.78844Z" fill="black"/>
<path d="M69.9453 9.18191H67.9062V8.40847C67.9062 7.64142 68.2258 7.21316 69.0887 7.21316C69.4531 7.21316 69.7599 7.29625 69.9517 7.35378L70.4183 5.56401C70.1179 5.46174 69.4595 5.29554 68.6605 5.29554C66.9538 5.29554 65.5923 6.27353 65.5923 8.25506V9.18191H64.1413V10.9717H65.5923V19.0001H67.9062V10.9717H69.9453V9.18191Z" fill="black"/>
<path d="M75.311 19.1919C78.1874 19.1919 80.0155 17.1656 80.0155 14.1294C80.0155 11.0867 78.1874 9.05407 75.311 9.05407C72.4345 9.05407 70.6064 11.0867 70.6064 14.1294C70.6064 17.1656 72.4345 19.1919 75.311 19.1919ZM75.3237 17.3382C73.7321 17.3382 72.9523 15.9191 72.9523 14.123C72.9523 12.3268 73.7321 10.8886 75.3237 10.8886C76.8898 10.8886 77.6696 12.3268 77.6696 14.123C77.6696 15.9191 76.8898 17.3382 75.3237 17.3382Z" fill="black"/>
<path d="M81.6195 19.0001H83.9334V13.2281C83.9334 11.9816 84.873 11.0995 86.145 11.0995C86.5349 11.0995 87.0207 11.1698 87.2189 11.2338V9.1052C87.0079 9.06685 86.6436 9.04128 86.3879 9.04128C85.2629 9.04128 84.3233 9.68049 83.9653 10.8183H83.8631V9.18191H81.6195V19.0001Z" fill="black"/>
<path d="M88.3962 19.0001H90.7101V13.0299C90.7101 11.8218 91.5155 11.0036 92.5126 11.0036C93.4906 11.0036 94.1618 11.662 94.1618 12.672V19.0001H96.431V12.8765C96.431 11.7707 97.0894 11.0036 98.208 11.0036C99.1412 11.0036 99.8827 11.5534 99.8827 12.7678V19.0001H102.203V12.4099C102.203 10.2174 100.937 9.05407 99.1348 9.05407C97.7094 9.05407 96.6227 9.75719 96.1881 10.8502H96.0858C95.7087 9.73801 94.7563 9.05407 93.4331 9.05407C92.1163 9.05407 91.132 9.73162 90.7229 10.8502H90.6078V9.18191H88.3962V19.0001Z" fill="black"/>
<path d="M119.603 10.3261C119.2 7.4177 116.963 5.7302 114.061 5.7302C110.641 5.7302 108.065 8.2231 108.065 12.4546C108.065 16.6798 110.609 19.1791 114.061 19.1791C117.174 19.1791 119.239 17.1656 119.603 14.6663L117.212 14.6535C116.912 16.1876 115.659 17.0505 114.093 17.0505C111.971 17.0505 110.449 15.4589 110.449 12.4546C110.449 9.50151 111.958 7.85875 114.099 7.85875C115.691 7.85875 116.937 8.76003 117.212 10.3261H119.603Z" fill="black"/>
<path d="M128.529 9.5079H130.811C130.766 7.29625 128.88 5.7302 126.094 5.7302C123.345 5.7302 121.28 7.27708 121.287 9.591C121.287 11.4703 122.623 12.5505 124.777 13.1066L126.266 13.4901C127.679 13.8481 128.612 14.2892 128.618 15.3055C128.612 16.4241 127.551 17.172 126.004 17.172C124.521 17.172 123.371 16.5072 123.275 15.1329H120.942C121.037 17.7345 122.974 19.1982 126.023 19.1982C129.162 19.1982 130.983 17.6322 130.99 15.3247C130.983 13.0555 129.111 12.02 127.142 11.5534L125.915 11.2465C124.841 10.9909 123.677 10.537 123.69 9.44398C123.697 8.45961 124.579 7.7373 126.062 7.7373C127.474 7.7373 128.407 8.39569 128.529 9.5079Z" fill="black"/>
<path d="M139.858 9.5079H142.14C142.096 7.29625 140.21 5.7302 137.423 5.7302C134.674 5.7302 132.61 7.27708 132.616 9.591C132.616 11.4703 133.952 12.5505 136.106 13.1066L137.596 13.4901C139.008 13.8481 139.941 14.2892 139.948 15.3055C139.941 16.4241 138.88 17.172 137.333 17.172C135.851 17.172 134.7 16.5072 134.604 15.1329H132.271C132.367 17.7345 134.304 19.1982 137.353 19.1982C140.491 19.1982 142.313 17.6322 142.319 15.3247C142.313 13.0555 140.44 12.02 138.471 11.5534L137.244 11.2465C136.17 10.9909 135.007 10.537 135.02 9.44398C135.026 8.45961 135.908 7.7373 137.391 7.7373C138.804 7.7373 139.737 8.39569 139.858 9.5079Z" fill="black"/>
<defs>
<linearGradient id="paint0_linear" x1="0" y1="12" x2="24" y2="12" gradientUnits="userSpaceOnUse">
<stop stop-color="#40C6FF"/>
<stop offset="1" stop-color="#4C72F8"/>
<stop offset="1" stop-color="#505BED"/>
</linearGradient>
</defs>
</svg>
