<svg width="139" height="24" viewBox="0 0 139 24" fill="none" xmlns="http://www.w3.org/2000/svg">
<path fill-rule="evenodd" clip-rule="evenodd" d="M24 0H0V12C0 18.6274 5.37258 24 12 24C18.6274 24 24 18.6274 24 12V0ZM14.5 6V2.5H21.5V6C21.5 7.933 19.933 9.5 18 9.5C16.067 9.5 14.5 7.933 14.5 6ZM18 12C19.3062 12 20.5149 11.5826 21.5 10.874V12C21.5 17.2467 17.2467 21.5 12 21.5C6.75329 21.5 2.5 17.2467 2.5 12V2.5H12V6C12 9.31371 14.6863 12 18 12Z" fill="black"/>
<path d="M60.6389 19H62.9528V9.18182H60.6389V19Z" fill="black"/>
<path d="M61.8023 7.78835C62.5373 7.78835 63.1382 7.22585 63.1382 6.53551C63.1382 5.83878 62.5373 5.27628 61.8023 5.27628C61.0608 5.27628 60.4599 5.83878 60.4599 6.53551C60.4599 7.22585 61.0608 7.78835 61.8023 7.78835Z" fill="black"/>
<path d="M45.5434 14.2635V5.90909H47.9148V14.4616C47.9148 17.2741 45.7927 19.1982 42.6031 19.1982C39.4006 19.1982 37.2913 17.2741 37.2913 14.4616V5.90909H39.6627V14.2635C39.6627 15.9062 40.8005 17.0824 42.6031 17.0824C44.3992 17.0824 45.5434 15.9062 45.5434 14.2635Z" fill="black"/>
<path d="M54.4215 11.0099C53.2006 11.0099 52.3441 11.8281 52.3441 13.2472V19H50.0302V9.18182H52.2418V10.8501H52.3569C52.8043 9.7571 53.8143 9.05398 55.2844 9.05398C57.3107 9.05398 58.653 10.3963 58.6466 12.7486V19H56.3327V13.1065C56.3327 11.7962 55.6168 11.0099 54.4215 11.0099Z" fill="black"/>
<path d="M67.9062 9.18182H69.9453V10.9716H67.9062V19H65.5923V10.9716H64.1413V9.18182H65.5923V8.25497C65.5923 6.27344 66.9538 5.29545 68.6605 5.29545C69.4595 5.29545 70.1179 5.46165 70.4183 5.56392L69.9517 7.35369C69.7599 7.29616 69.4531 7.21307 69.0887 7.21307C68.2258 7.21307 67.9062 7.64133 67.9062 8.40838V9.18182Z" fill="black"/>
<path fill-rule="evenodd" clip-rule="evenodd" d="M75.311 19.1918C78.1874 19.1918 80.0155 17.1655 80.0155 14.1293C80.0155 11.0866 78.1874 9.05398 75.311 9.05398C72.4345 9.05398 70.6064 11.0866 70.6064 14.1293C70.6064 17.1655 72.4345 19.1918 75.311 19.1918ZM75.3237 17.3381C73.7321 17.3381 72.9523 15.919 72.9523 14.1229C72.9523 12.3267 73.7321 10.8885 75.3237 10.8885C76.8898 10.8885 77.6696 12.3267 77.6696 14.1229C77.6696 15.919 76.8898 17.3381 75.3237 17.3381Z" fill="black"/>
<path d="M83.9334 19H81.6195V9.18182H83.8631V10.8182H83.9653C84.3233 9.6804 85.2629 9.04119 86.3879 9.04119C86.6436 9.04119 87.0079 9.06676 87.2189 9.10511V11.2337C87.0207 11.1697 86.5349 11.0994 86.145 11.0994C84.873 11.0994 83.9334 11.9815 83.9334 13.228V19Z" fill="black"/>
<path d="M88.3962 19H90.7101V13.0298C90.7101 11.8217 91.5155 11.0035 92.5126 11.0035C93.4906 11.0035 94.1618 11.6619 94.1618 12.6719V19H96.431V12.8764C96.431 11.7706 97.0894 11.0035 98.208 11.0035C99.1412 11.0035 99.8827 11.5533 99.8827 12.7678V19H102.203V12.4098C102.203 10.2173 100.937 9.05398 99.1348 9.05398C97.7094 9.05398 96.6227 9.7571 96.1881 10.8501H96.0858C95.7087 9.73792 94.7563 9.05398 93.4331 9.05398C92.1163 9.05398 91.132 9.73153 90.7229 10.8501H90.6078V9.18182H88.3962V19Z" fill="black"/>
<path d="M109.956 5.73011C112.858 5.73011 115.095 7.41761 115.498 10.326H113.107C112.833 8.75994 111.586 7.85866 109.994 7.85866C107.853 7.85866 106.345 9.50142 106.345 12.4545C106.345 15.4588 107.866 17.0504 109.988 17.0504C111.554 17.0504 112.807 16.1875 113.107 14.6534L115.498 14.6662C115.134 17.1655 113.069 19.179 109.956 19.179C106.504 19.179 103.96 16.6797 103.96 12.4545C103.96 8.22301 106.536 5.73011 109.956 5.73011Z" fill="black"/>
<path d="M124.424 9.50781H126.706C126.661 7.29616 124.776 5.73011 121.989 5.73011C119.24 5.73011 117.175 7.27699 117.182 9.59091C117.182 11.4702 118.518 12.5504 120.672 13.1065L122.161 13.4901C123.574 13.848 124.507 14.2891 124.514 15.3054C124.507 16.424 123.446 17.1719 121.899 17.1719C120.416 17.1719 119.266 16.5071 119.17 15.1328H116.837C116.933 17.7344 118.869 19.1982 121.918 19.1982C125.057 19.1982 126.879 17.6321 126.885 15.3246C126.879 13.0554 125.006 12.0199 123.037 11.5533L121.81 11.2464C120.736 10.9908 119.572 10.5369 119.585 9.44389C119.592 8.45951 120.474 7.73721 121.957 7.73721C123.369 7.73721 124.303 8.39559 124.424 9.50781Z" fill="black"/>
<path d="M138.035 9.50781H135.754C135.632 8.39559 134.699 7.73721 133.286 7.73721C131.803 7.73721 130.921 8.45951 130.915 9.44389C130.902 10.5369 132.065 10.9908 133.139 11.2464L134.366 11.5533C136.335 12.0199 138.208 13.0554 138.214 15.3246C138.208 17.6321 136.386 19.1982 133.248 19.1982C130.199 19.1982 128.262 17.7344 128.166 15.1328H130.499C130.595 16.5071 131.746 17.1719 133.229 17.1719C134.776 17.1719 135.837 16.424 135.843 15.3054C135.837 14.2891 134.903 13.848 133.491 13.4901L132.001 13.1065C129.847 12.5504 128.511 11.4702 128.511 9.59091C128.505 7.27699 130.57 5.73011 133.318 5.73011C136.105 5.73011 137.991 7.29616 138.035 9.50781Z" fill="black"/>
</svg>
